<svg xmlns="http://www.w3.org/2000/svg" width="249.151" height="249.151" viewBox="0 0 249.151 249.151"><g transform="translate(-1 -1)"><path d="M42.074,80.334h8.037V72.3H54.13v8.037h8.037V72.3a16.007,16.007,0,0,0,10.521-28.13,16.007,16.007,0,0,0-10.521-28.13V8H54.13v8.037H50.111V8H42.074v8.037H26v8.037h8.037V64.26H26V72.3H42.074Zm20.093-56.26a8.037,8.037,0,0,1,0,16.074H42.074V24.074ZM42.074,48.186H62.167a8.037,8.037,0,1,1,0,16.074H42.074Z" transform="translate(75.464 21.13)"/><path d="M28.037,17H20A48.277,48.277,0,0,0,68.223,65.223V57.186A40.231,40.231,0,0,1,28.037,17Z" transform="translate(57.353 48.297)"/><path d="M72.186,53.223h8.037A48.277,48.277,0,0,0,32,5v8.037A40.231,40.231,0,0,1,72.186,53.223Z" transform="translate(93.576 12.074)"/><path d="M238.1,73.334H189.35a63.568,63.568,0,0,0,.522-8.037,64.3,64.3,0,1,0-128.594,0,63.567,63.567,0,0,0,.522,8.037H25.111A24.136,24.136,0,0,0,1,97.446V230.059a20.116,20.116,0,0,0,20.093,20.093H230.059a20.116,20.116,0,0,0,20.093-20.093V85.39A12.07,12.07,0,0,0,238.1,73.334Zm0,8.037a4.025,4.025,0,0,1,4.019,4.019v28.869a11.92,11.92,0,0,0-4.019-.739H168.088A64.691,64.691,0,0,0,187.8,81.371ZM125.576,9.037A56.248,56.248,0,0,1,154.521,113.52H96.63A56.248,56.248,0,0,1,125.576,9.037ZM25.111,81.371H63.356A64.691,64.691,0,0,0,83.063,113.52H25.111a16.074,16.074,0,0,1,0-32.149Zm217,112.52H209.966a16.074,16.074,0,1,1,0-32.149h32.149Zm0-40.186H209.966a24.111,24.111,0,1,0,0,48.223h32.149v28.13a12.07,12.07,0,0,1-12.056,12.056H21.093A12.07,12.07,0,0,1,9.037,230.059V115.369a23.988,23.988,0,0,0,16.074,6.189H238.1a4.025,4.025,0,0,1,4.019,4.019Z" transform="translate(0)"/><path d="M50,54.056A12.056,12.056,0,1,0,62.056,42,12.07,12.07,0,0,0,50,54.056Zm16.074,0a4.019,4.019,0,1,1-4.019-4.019A4.025,4.025,0,0,1,66.074,54.056Z" transform="translate(147.91 123.761)"/></g></svg>