<svg xmlns="http://www.w3.org/2000/svg" width="246.599" height="224.841" viewBox="0 0 246.599 224.841"><defs><style>.a{stroke:#000000;}</style></defs><g transform="translate(0.522 0.219)"><path class="a" d="M245.575,173.844A12.455,12.455,0,0,0,233.133,161.4H188.008a34.955,34.955,0,0,0-24.45-30.45c0-.049.012-.1.014-.158a80.216,80.216,0,0,0-12.856-45.575,78.225,78.225,0,0,0-30.633-27.613c2.958-1.767,4.417-3.843,4.417-6.279v-6.62c0-.035,0-.07-.006-.107s.006-.1.006-.154c0-2.8-2.164-5.594-16.176-7.351a29.89,29.89,0,0,0,5.92-7.969l8.736-17.093a3,3,0,0,0-4.1-3.993c-4.535,2.476-10.364-.16-14.455-2.806A28.943,28.943,0,0,0,77.712,2.578a24.491,24.491,0,0,0-11.6,9.395C53.242,17.727,45.983,9.185,45.657,8.789a2.995,2.995,0,0,0-5.093,3.028L46.843,26.97a29.8,29.8,0,0,0,7.121,10.323,71.025,71.025,0,0,0-7.027,1.295c-2.332.575-7.8,1.923-7.8,5.861,0,.049,0,.1.006.152,0,.037-.006.072-.006.107v6.62c0,2.523,1.685,4.584,4.457,6.253A79.9,79.9,0,0,0,2.777,107.789a76.7,76.7,0,0,0,13.6,67.824,26.438,26.438,0,0,0-3.795,13.7,7.9,7.9,0,0,0,7.9,7.866,26.3,26.3,0,0,0,18.731-7.766l.039-.041a13.133,13.133,0,0,1,9.354-3.88H63.3A12.414,12.414,0,0,0,65.144,202.1a11.946,11.946,0,0,0-4.212,9.1v.946a11.984,11.984,0,0,0,11.97,11.97h66.016a11.984,11.984,0,0,0,11.971-11.97v-.946a11.948,11.948,0,0,0-4.2-9.09,12.368,12.368,0,0,0,2.568-3.18c.142.016.285.029.427.043h.012q.845.085,1.7.131c.059,0,.117,0,.174.008.56.025,1.117.041,1.681.041a34.955,34.955,0,0,0,3.99-.234,12.383,12.383,0,0,0,2.467,3.089,11.939,11.939,0,0,0-4.093,9v.944a11.984,11.984,0,0,0,11.97,11.971h66.018a11.983,11.983,0,0,0,11.969-11.969v-.946a11.937,11.937,0,0,0-4.1-9.007,12.42,12.42,0,0,0-.285-18.692,12.414,12.414,0,0,0,4.383-9.471Zm-5.99,0a6.459,6.459,0,0,1-6.452,6.452h-48.91a34.6,34.6,0,0,0,3.765-12.9h45.144a6.46,6.46,0,0,1,6.452,6.452ZM101.169,10.265C106.02,13.4,110.6,15,114.721,15.027L108.908,26.4a23.756,23.756,0,0,1-9.9,10.134,2.952,2.952,0,0,0-.472.25,23.7,23.7,0,0,1-7.16,2.309l4.7-24.707a3,3,0,0,0-1.074-2.9c-.3-.236-5.317-4.116-14.119-3.7a23.009,23.009,0,0,1,20.279,2.484ZM52.374,24.677,49.859,18.6c5.025,1.817,11.662,2.172,19.361-1.466a2.945,2.945,0,0,0,.54-.25c10.352-4.955,17.216-2.933,20.049-1.574l-4.58,24.062H74.371A23.834,23.834,0,0,1,63.7,36.856a3.045,3.045,0,0,0-.435-.222A23.755,23.755,0,0,1,52.375,24.677Zm9.147,17.791a29.8,29.8,0,0,0,12.85,2.9H87.707a29.809,29.809,0,0,0,13.088-3.009,94.01,94.01,0,0,1,14.671,2.1c-5.427,1.338-16.74,2.8-33.646,2.8-16.933,0-28.258-1.466-33.673-2.808a90.894,90.894,0,0,1,13.374-1.977Zm-8.2,9.048a207.651,207.651,0,0,0,28.5,1.732,207.63,207.63,0,0,0,28.5-1.732,56.5,56.5,0,0,0,8.2-1.694v1.4c-.16.255-1.31,1.759-6.831,3.418-.023.008-.047.014-.07.02C104.3,56.844,93.453,58.1,81.822,58.1a124.62,124.62,0,0,1-26.043-2.467c-7.759-1.737-10.305-3.757-10.648-4.4v-1.41a56.737,56.737,0,0,0,8.194,1.694ZM35.013,185.144l-.039.039a20.347,20.347,0,0,1-14.49,6,1.881,1.881,0,0,1-1.909-1.884A20.445,20.445,0,0,1,21.6,178.559a5.687,5.687,0,0,0-.369-6.462A70.757,70.757,0,0,1,8.552,109.373a73.627,73.627,0,0,1,42.722-48.7c9.145,2.558,21.6,3.416,30.545,3.416a146.681,146.681,0,0,0,20.135-1.324,51.171,51.171,0,0,0-6.988,17.081,3,3,0,0,0,5.861,1.238,45.224,45.224,0,0,1,7.759-17.415l1.067,1.546.06.1a93.6,93.6,0,0,1,10.555,26.907,2.995,2.995,0,0,0,5.84-1.33,99.682,99.682,0,0,0-11.235-28.619l-.117-.2c-.035-.06-.074-.119-.113-.177l-.253-.367a72.11,72.11,0,0,1,31.294,26.942,74.246,74.246,0,0,1,11.906,41.205,33.826,33.826,0,0,0-8.435-.031,12.468,12.468,0,0,0-2.476-3,11.945,11.945,0,0,0,4.208-9.1v-.946a11.983,11.983,0,0,0-11.97-11.969H72.9a11.983,11.983,0,0,0-11.971,11.969v.946a11.946,11.946,0,0,0,4.212,9.1,12.42,12.42,0,0,0,.174,18.789,12.417,12.417,0,0,0,0,18.939,12.41,12.41,0,0,0-3.02,15.124H48.609a19.079,19.079,0,0,0-13.6,5.641Zm87.246-4.847H73.375a6.383,6.383,0,0,1-2.919-.706V179.5h-.183a6.451,6.451,0,0,1,3.1-12.107h45.14c.008.084.016.17.025.254.01.119.021.238.035.355a34.422,34.422,0,0,0,3.683,12.3Zm-3.754-18.937H73.375a6.453,6.453,0,0,1,0-12.906h48.812A34.606,34.606,0,0,0,118.505,161.359ZM126.1,142.42H73.375a6.452,6.452,0,0,1,0-12.9h65.072a6.449,6.449,0,0,1,4.186,1.542A34.987,34.987,0,0,0,126.1,142.422ZM72.9,123.529a5.988,5.988,0,0,1-5.98-5.98V116.6a5.985,5.985,0,0,1,5.98-5.978h66.016a5.985,5.985,0,0,1,5.98,5.978v.946a5.988,5.988,0,0,1-5.98,5.98Zm66.016,81.7a5.986,5.986,0,0,1,5.98,5.978v.946a5.988,5.988,0,0,1-5.98,5.98H72.9a5.988,5.988,0,0,1-5.98-5.98v-.946a5.985,5.985,0,0,1,5.98-5.978Zm-.472-5.99H73.375a6.453,6.453,0,0,1,0-12.906h52.856a34.584,34.584,0,0,0,16.547,11.243,6.44,6.44,0,0,1-4.331,1.661Zm13.216-6.113c-.234-.014-.466-.035-.7-.053-.277-.021-.554-.043-.829-.072-.32-.035-.638-.078-.954-.123-.166-.023-.331-.045-.5-.072-.394-.062-.786-.131-1.174-.209l-.15-.031a28.956,28.956,0,0,1-22.833-25.2l-.029-.289q-.05-.535-.082-1.072c-.006-.119-.014-.234-.02-.351-.021-.452-.035-.909-.035-1.367a28.891,28.891,0,1,1,28.89,28.89c-.532,0-1.063-.021-1.591-.049Zm87.921,17.887v.946a5.985,5.985,0,0,1-5.978,5.98H167.591a5.987,5.987,0,0,1-5.98-5.98v-.946a5.987,5.987,0,0,1,4.955-5.885,12.821,12.821,0,0,0,1.5.1h65.07a12.361,12.361,0,0,0,1.519-.1,5.984,5.984,0,0,1,4.933,5.881Zm-5.978-11.969H167.591c-.31,0-.618.014-.922.039a6.421,6.421,0,0,1-2.954-1.529,34.982,34.982,0,0,0,16.543-11.224h52.876a6.451,6.451,0,0,1,1.39,12.75c-.3-.023-.608-.037-.916-.037Zm0,0" transform="translate(0)"/><path class="a" d="M294.964,287.111a6.025,6.025,0,0,1,6.019,6.019,3,3,0,1,0,5.99,0,12.027,12.027,0,0,0-9.014-11.629v-2.338a3,3,0,0,0-5.99,0V281.5a12.011,12.011,0,0,0,2.995,23.643,6.018,6.018,0,1,1,.062,12.037c-.021,0-.041,0-.062,0s-.041,0-.062,0a6.026,6.026,0,0,1-5.959-6.017,3,3,0,1,0-5.99,0,12.033,12.033,0,0,0,9.016,11.631v2.745a3,3,0,1,0,5.99,0v-2.745a12.011,12.011,0,0,0-3-23.642,6.02,6.02,0,1,1,0-12.041Zm0,0" transform="translate(-141.709 -138.071)"/></g></svg>