<svg xmlns="http://www.w3.org/2000/svg" width="226.4" height="226.4" viewBox="0 0 226.4 226.4"><path d="M359.8,322.311c-1.017-.359-2.057-.735-3.095-1.124v-17.61a8.231,8.231,0,0,1,3.557,1.871,4.422,4.422,0,0,0,6.651-5.828,17.032,17.032,0,0,0-10.209-5.072v-3.126a4.422,4.422,0,0,0-8.844,0v3.639c-.458.113-.921.234-1.391.376a16.394,16.394,0,0,0-11.237,12.858c-1.068,5.665.759,11.137,4.766,14.28a37.47,37.47,0,0,0,7.862,4.545V349.58c-2.742-.271-4.616-1.044-7.7-3.063a4.422,4.422,0,0,0-4.841,7.4c4.9,3.2,8.3,4.235,12.543,4.53v3.724a4.422,4.422,0,0,0,8.844,0V358.05a19.89,19.89,0,0,0,14.977-15.976C373.184,333.15,368.52,325.393,359.8,322.311Zm-11.938-5.1a20.915,20.915,0,0,1-2.4-1.6c-1.378-1.081-1.981-3.312-1.533-5.684a7.885,7.885,0,0,1,3.937-5.557v12.837Zm15.1,23.394a11,11,0,0,1-6.255,8.179V330.6l.147.053C363.67,333.058,363.253,338.88,362.962,340.607Z" transform="translate(-185.929 -160.092)"/><path d="M301.7,242a59.7,59.7,0,1,0,59.7,59.7A59.763,59.763,0,0,0,301.7,242Zm0,106.125a46.43,46.43,0,1,1,46.43-46.43A46.482,46.482,0,0,1,301.7,348.125Z" transform="translate(-134.99 -134.99)"/><path d="M59.7,0a59.7,59.7,0,1,0,59.7,59.7A59.763,59.763,0,0,0,59.7,0Zm0,106.125a46.43,46.43,0,1,1,46.43-46.43A46.482,46.482,0,0,1,59.7,106.125Z"/><path d="M308.633,83.266h30.953a6.64,6.64,0,0,1,6.633,6.633v14.94l-1.943-1.943a6.633,6.633,0,1,0-9.38,9.38l13.266,13.266a6.633,6.633,0,0,0,9.38,0l13.266-13.266a6.633,6.633,0,0,0-9.38-9.38l-1.943,1.943V89.9a19.921,19.921,0,0,0-19.9-19.9H308.633a6.633,6.633,0,1,0,0,13.266Z" transform="translate(-168.459 -39.047)"/><path d="M114.117,356.219H83.164a6.64,6.64,0,0,1-6.633-6.633v-14.94l1.943,1.943a6.633,6.633,0,0,0,9.38-9.38L74.588,313.942a6.633,6.633,0,0,0-9.38,0L51.942,327.208a6.633,6.633,0,0,0,9.38,9.38l1.943-1.943v14.94a19.921,19.921,0,0,0,19.9,19.9h30.953a6.633,6.633,0,1,0,0-13.266Z" transform="translate(-27.89 -174.037)"/><path d="M127.081,65.879a4.421,4.421,0,0,0-6.128,1.247L106.424,89.079l-14.672-22.1a4.422,4.422,0,0,0-7.369,4.891L99.9,95.244H88.1a4.422,4.422,0,0,0,0,8.844h13.883l-.006,2.715H88.1a4.422,4.422,0,0,0,0,8.844h13.856l-.026,11.249a4.422,4.422,0,0,0,4.412,4.432h.01a4.422,4.422,0,0,0,4.422-4.412l.026-11.269h13.8a4.422,4.422,0,0,0,0-8.844H110.825l.006-2.715H124.6a4.422,4.422,0,0,0,0-8.844H112.948l15.379-23.237A4.422,4.422,0,0,0,127.081,65.879Z" transform="translate(-46.658 -36.257)"/></svg>